<svg xmlns="http://www.w3.org/2000/svg" version="1.1" xmlns:xlink="http://www.w3.org/1999/xlink" width="1500" height="502" viewBox="0 0 1500 502"><svg xml:space="preserve" width="1500" height="502" data-version="2" data-id="lg_MlfFZgYJHdCnrLAOzM" viewBox="0 0 326 502" x="0" y="0"><rect width="100%" height="100%" fill="transparent"></rect><path fill="#001f3f" d="M33.647 420.38h60.48v10.81h-24.83V496h-10.81v-64.81h-24.84Z"></path><rect width="60.48" height="75.62" x="-30.24" y="-37.81" fill="none" rx="0" ry="0" transform="translate(64.39 458.69)"></rect><path fill="#001f3f" d="M109.897 450.22V496h-10.33v-56.17h10.33v9.92q.11-2.06.95-3.88.85-1.82 2.24-3.16 1.4-1.35 3.25-2.11 1.84-.77 3.95-.77h11.02q2.16 0 4.04.82 1.87.82 3.29 2.22 1.43 1.39 2.24 3.29.82 1.9.82 4.06v9.5h-10.39v-9.5Z"></path><rect width="42.13" height="56.17" x="-21.07" y="-28.09" fill="none" rx="0" ry="0" transform="translate(121.13 468.42)"></rect><path fill="#001f3f" d="M165.537 439.83V496h-10.39v-56.17Zm-10.92-21.62h11.44v10.81h-11.44Z"></path><rect width="11.44" height="77.79" x="-5.72" y="-38.9" fill="none" rx="0" ry="0" transform="translate(160.84 457.6)"></rect><path fill="#001f3f" d="M193.697 418.21V496h-10.34v-77.79Z"></path><rect width="10.34" height="77.79" x="-5.17" y="-38.9" fill="none" rx="0" ry="0" transform="translate(189.03 457.6)"></rect><path fill="#001f3f" d="M221.327 418.21V496h-10.34v-77.79Z"></path><rect width="10.34" height="77.79" x="-5.17" y="-38.9" fill="none" rx="0" ry="0" transform="translate(216.66 457.6)"></rect><path fill="#001f3f" d="M287.197 485.61q0 2.16-.82 4.06-.82 1.9-2.22 3.29-1.39 1.4-3.27 2.22-1.87.82-4.03.82h-27.9q-2.11 0-4-.82-1.9-.82-3.3-2.22-1.4-1.39-2.22-3.29-.81-1.9-.81-4.06v-35.39q0-2.16.81-4.06.82-1.9 2.22-3.29 1.4-1.4 3.3-2.22 1.89-.82 4-.82h27.9q2.16 0 4.03.82 1.88.82 3.27 2.22 1.4 1.39 2.22 3.29.82 1.9.82 4.06Zm-38.24-35.39v35.39h27.9v-35.39Z"></path><rect width="48.57" height="56.17" x="-24.29" y="-28.09" fill="none" rx="0" ry="0" transform="translate(263.41 468.42)"></rect><path fill="#001f3f" d="M322.832 97.283 162.998 4.998 3.164 97.283l159.834 92.27z"></path><path fill="#ffdc00" fill-rule="evenodd" d="M163 189.537v184.57l159.834-92.285V97.267z"></path><path fill="#5cedd5" fill-rule="evenodd" d="M163 189.537v184.57L3.166 281.822V97.267z"></path><path fill="#5cedd5" fill-rule="evenodd" d="m256.931 243.775-93.927 54.234-93.942-54.234V135.308l93.942-54.233 93.927 54.233z"></path><path fill="#ffdc00" fill-rule="evenodd" d="M163.005 192.045V83.578l-93.942 54.233v108.467z"></path><path fill="#001f3f" fill-rule="evenodd" d="m163.004 189.538 93.927 54.233-93.927 54.234-93.942-54.234z"></path></svg></svg>